<svg width="100" height="100" xmlns="http://www.w3.org/2000/svg" xmlns:xlink="http://www.w3.org/1999/xlink">
 <defs>
  <svg id="a1488724153919" viewBox="0 0 100 100" y="0px" x="0px" xmlns:xlink="http://www.w3.org/1999/xlink" height="100" width="100">
   <path id="svg_1" d="m72.456001,92.334999l-43.919001,0c-5.907001,0 -10.714001,-4.806 -10.714001,-10.712997l0,-43.920002c0,-5.907 4.806999,-10.712999 10.714001,-10.712999l43.919001,0c5.907997,0 10.713997,4.806 10.713997,10.712999l0,43.920002c0,5.906998 -4.806,10.712997 -10.713997,10.712997zm-43.919001,-61.487c-3.780001,0 -6.855001,3.075001 -6.855001,6.854l0,43.920002c0,3.779999 3.075001,6.853996 6.855001,6.853996l43.919001,0c3.779999,0 6.854996,-3.074997 6.854996,-6.853996l0,-43.920002c0,-3.778999 -3.074997,-6.854 -6.854996,-6.854l-43.919001,0zm2.689999,21.27c-1.943998,0 -3.518999,1.575001 -3.518999,3.519001c0,1.943001 1.575001,3.518997 3.518999,3.518997c1.942999,0 3.518999,-1.575996 3.518999,-3.518997c-0.000999,-1.944 -1.576,-3.519001 -3.518999,-3.519001zm38.539999,0c-1.944,0 -3.518997,1.575001 -3.518997,3.519001c0,1.943001 1.574997,3.518997 3.518997,3.518997c1.943001,0 3.519005,-1.575996 3.519005,-3.518997c-0.000999,-1.944 -1.577003,-3.519001 -3.519005,-3.519001zm-4.608002,13.718998l-29.324997,0c-3.286999,0 -5.764999,1.514999 -5.764999,3.525002l0,8.385002c0,2.010002 2.479,3.525002 5.764999,3.525002l29.324997,0c3.286003,0 5.765007,-1.516006 5.765007,-3.525002l0,-8.385002c0,-2.010002 -2.479004,-3.525002 -5.765007,-3.525002zm3.449005,3.525002l0,3.420998l-5.764,0l0,-4.630997l2.314995,0c2.263,0 3.449005,0.899002 3.449005,1.209999zm-22.646,3.420998l-6.271,0l0,-4.630997l6.271,0l0,4.630997zm1.542999,-4.630997l5.980999,0l0,4.630997l-5.980999,0l0,-4.630997zm-1.542999,6.173996l0,4.630005l-6.271,0l0,-4.630005l6.271,0zm1.542999,0l5.980999,0l0,4.630005l-5.980999,0l0,-4.630005zm7.525997,0l6.271,0l0,4.630005l-6.271,0l0,-4.630005zm0,-1.542999l0,-4.630997l6.271,0l0,4.630997l-6.271,0zm-19.196999,-4.630997l2.313999,0l0,4.630997l-5.764,0l0,-3.420998c0,-0.310997 1.186001,-1.209999 3.450001,-1.209999zm-3.450001,9.595001l0,-3.419998l5.764,0l0,4.629997l-2.313999,0c-2.264,0 -3.450001,-0.900002 -3.450001,-1.209999zm32.774998,1.209999l-2.314995,0l0,-4.629997l5.764,0l0,3.419998c0,0.309998 -1.186005,1.209999 -3.449005,1.209999zm-25.162998,-60.748001l-3.540997,-11.137c-0.110001,-0.349 -0.426003,-0.592 -0.791,-0.612c-0.375,-0.035 -0.706001,0.188 -0.853001,0.522l-3.683001,8.323l-5.168001,-5.311c-0.235998,-0.241 -0.588999,-0.328 -0.907999,-0.221001c-0.32,0.106 -0.551001,0.386001 -0.596001,0.721001l-0.972,7.353999l-7.994999,-4.728c-0.315001,-0.187 -0.711,-0.158999 -0.996,0.068c-0.286,0.228001 -0.401,0.608 -0.291,0.956l3.540001,11.138c0.116999,0.368 0.452999,0.605 0.819,0.614c0.094999,0.002001 0.191,-0.011 0.286999,-0.042l20.574001,-6.538c0.223,-0.07 0.408001,-0.226999 0.514999,-0.434c0.109001,-0.208 0.127998,-0.450001 0.058998,-0.673z"/>
  </svg>
  <!--?xml version="1.0"?-->
  <!--?xml version="1.0"?-->
 </defs>
 <g>
  <use y="5.518379" x="-7.375083" fill="#3c3c3c" xlink:href="#a1488724153919" id="SvgjsUse1098"/>
 </g>
</svg>